# xmcd
#
# Track frame offsets:
#	150
#	13271
#	25950
#	37783
#	48912
#	61335
#	71914
#	84529
#	97007
#	109937
#	122543
#	133883
#	147052
#	158362
#	171369
#	184199
#	195289
#	206208
#	218276
#	228843
#
# Disc length: 3201 seconds
#
# Revision: 1
# Processed by: cddbd v1.5.2PL0 Copyright (c) Steve Scherf et al.
# Submitted via: audiograbber 1.83.01
#
DISCID=100c7f14
DTITLE=Mary Wells - The Motown Collection
DYEAR=2008
DGENRE=Soul
TTITLE0=Bye Bye Baby
TTITLE1=I Don't Want To Take A Chance
TTITLE2=Shop Around
TTITLE3=The One Who Really Loves You
TTITLE4=You Beat Me To The Punch
TTITLE5=Old Love (Let's Try Again)
TTITLE6=Two Lovers
TTITLE7=Operator
TTITLE8=Laughing Guy
TTITLE9=Two Wrongs Don't Make A Right
TTITLE10=Goodbye And Good Luck
TTITLE11=What Love Has Joined Together
TTITLE12=You Lost The Sweetest Boy
TTITLE13=What's Easy For Two Is So Hard For One
TTITLE14=My Guy
TTITLE15=Once Upon A Time
TTITLE16=What's The Matter With You Baby
TTITLE17=Whisper You Love Me Boy
TTITLE18=When I'm Gone
TTITLE19=One Block From Heaven
EXTD=
EXTT0=
EXTT1=
EXTT2=
EXTT3=
EXTT4=
EXTT5=
EXTT6=
EXTT7=
EXTT8=
EXTT9=
EXTT10=
EXTT11=
EXTT12=
EXTT13=
EXTT14=
EXTT15=
EXTT16=
EXTT17=
EXTT18=
EXTT19=
PLAYORDER=
